<?xml version="1.0" encoding="UTF-8"?>
<svg xmlns="http://www.w3.org/2000/svg" xmlns:xlink="http://www.w3.org/1999/xlink" width="40px" height="42px" viewBox="0 0 40 41" version="1.1">
<g id="surface1">
<path style=" stroke:none;fill-rule:evenodd;fill:rgb(68.235294%,84.313725%,30.196078%);fill-opacity:1;" d="M 12.546875 1.542969 C 11.734375 1.613281 10.546875 1.820312 9.910156 2 C 6.824219 2.878906 3.296875 5.3125 2.25 7.285156 C 1.101562 9.457031 0.355469 18.234375 1.046875 21.40625 C 1.445312 23.226562 1.871094 24.125 3.414062 26.410156 C 5.335938 29.261719 8.648438 31.957031 11.101562 32.671875 C 12.976562 33.21875 15.054688 33.632812 15.203125 33.492188 C 15.257812 33.433594 15.386719 33.113281 15.484375 32.773438 L 15.667969 32.160156 L 14.351562 32.1875 C 12.425781 32.230469 12.351562 32.214844 12.351562 31.867188 C 12.351562 31.691406 12.507812 31.367188 12.695312 31.152344 C 12.972656 30.832031 12.976562 30.800781 12.71875 31 C 12.449219 31.199219 12.117188 31.097656 10.652344 30.367188 C 8.425781 29.253906 6.425781 27.769531 5.257812 26.355469 C 4.359375 25.265625 3.050781 22.882812 2.523438 21.363281 C 2.125 20.226562 2.195312 14.234375 2.628906 11.878906 C 2.816406 10.878906 2.976562 9.949219 2.988281 9.820312 C 2.996094 9.6875 3.078125 9.578125 3.171875 9.578125 C 3.261719 9.578125 3.332031 9.425781 3.332031 9.238281 C 3.332031 8.621094 4.644531 6.238281 5.320312 5.632812 C 6.925781 4.1875 9.070312 3.09375 11.277344 2.59375 C 12.878906 2.230469 14.988281 2.226562 18.429688 2.578125 C 23.894531 3.136719 25.992188 4.296875 28.921875 8.386719 C 29.898438 9.746094 29.90625 9.753906 30.820312 9.761719 C 31.328125 9.765625 31.785156 9.699219 31.84375 9.613281 C 32.019531 9.332031 30.195312 6.886719 28.574219 5.238281 C 26.171875 2.792969 24.554688 2.171875 19.511719 1.746094 C 16.035156 1.453125 14.195312 1.402344 12.546875 1.542969 M 13.136719 3.59375 C 12.085938 4.105469 12.128906 4.660156 13.386719 6.859375 C 14.488281 8.789062 14.953125 9.726562 15.199219 10.527344 L 15.347656 11 L 15.765625 10.484375 C 16.074219 10.105469 16.433594 9.933594 17.113281 9.84375 C 18.03125 9.71875 18.039062 9.710938 18.039062 9.003906 C 18.039062 8.609375 18.105469 7.996094 18.1875 7.640625 C 18.3125 7.082031 18.347656 7.175781 18.429688 8.335938 C 18.523438 9.609375 18.554688 9.675781 19.015625 9.675781 C 19.476562 9.675781 19.515625 9.589844 19.71875 8.140625 C 19.835938 7.300781 20.054688 6.066406 20.207031 5.402344 C 20.511719 4.03125 20.351562 3.742188 19.386719 3.914062 C 19.089844 3.964844 18.550781 3.847656 18.117188 3.632812 C 17.097656 3.121094 14.144531 3.101562 13.136719 3.59375 M 9 4.664062 C 8.121094 5.179688 7.046875 6.097656 6.609375 6.707031 C 5.929688 7.65625 6.265625 9.164062 7.382812 10.183594 C 7.945312 10.695312 14.964844 15.328125 15.179688 15.328125 C 15.242188 15.328125 15.292969 14.796875 15.292969 14.144531 C 15.292969 13.136719 15.132812 12.597656 14.199219 10.464844 C 11.414062 4.113281 10.90625 3.546875 9 4.664062 M 22.25 4.414062 C 21.949219 4.890625 20.886719 9.554688 21.046875 9.707031 C 21.085938 9.746094 22.683594 9.757812 24.59375 9.726562 L 28.066406 9.675781 L 27.515625 8.914062 C 26.671875 7.761719 23.027344 4.214844 22.683594 4.214844 C 22.515625 4.214844 22.320312 4.304688 22.25 4.414062 M 14.953125 6.128906 C 14.992188 6.839844 15.183594 7.707031 15.398438 8.140625 C 15.925781 9.207031 16.011719 8.585938 15.578125 6.835938 C 15.101562 4.882812 14.871094 4.625 14.953125 6.128906 M 9.804688 6.453125 C 9.804688 6.554688 10.070312 6.882812 10.390625 7.183594 C 10.714844 7.488281 10.976562 7.65625 10.972656 7.554688 C 10.960938 7.191406 9.804688 6.101562 9.804688 6.453125 M 9.203125 7.0625 C 9.484375 7.582031 9.804688 7.757812 9.804688 7.394531 C 9.804688 7.234375 9.621094 7.007812 9.398438 6.890625 C 9.027344 6.695312 9.007812 6.710938 9.203125 7.0625 M 12.160156 9.015625 C 12.167969 9.609375 12.878906 11.285156 13.703125 12.644531 C 14.261719 13.570312 14.324219 13.621094 14.210938 13.070312 C 14.070312 12.371094 12.621094 9.007812 12.339844 8.726562 C 12.226562 8.613281 12.160156 8.722656 12.160156 9.015625 M 8.753906 9.246094 C 8.988281 9.632812 10.394531 10.804688 10.386719 10.605469 C 10.375 10.328125 9.535156 9.449219 9.050781 9.203125 C 8.660156 9.007812 8.613281 9.015625 8.753906 9.246094 M 4.398438 10.054688 C 4.222656 10.316406 4.003906 10.851562 3.914062 11.242188 C 3.664062 12.328125 3.464844 15.214844 3.613281 15.664062 C 3.804688 16.253906 4.726562 16.476562 6.976562 16.476562 C 8.085938 16.476562 9.554688 16.605469 10.242188 16.757812 C 12.132812 17.1875 14.28125 17.449219 14.816406 17.320312 C 15.09375 17.25 15.292969 17.0625 15.292969 16.863281 C 15.292969 16.488281 14.761719 16.113281 11.707031 14.347656 C 10.542969 13.675781 8.867188 12.515625 7.980469 11.773438 C 6.15625 10.242188 5.230469 9.578125 4.925781 9.578125 C 4.808594 9.578125 4.570312 9.792969 4.398438 10.054688 M 9.019531 14.53125 C 9.019531 14.617188 9.238281 14.789062 9.507812 14.910156 C 10.089844 15.167969 12.574219 15.746094 12.675781 15.648438 C 12.773438 15.554688 9.648438 14.371094 9.300781 14.371094 C 9.144531 14.371094 9.019531 14.441406 9.019531 14.53125 M 6.898438 15.425781 C 7.042969 15.566406 10.25 16.105469 10.347656 16.007812 C 10.503906 15.855469 8.355469 15.328125 7.578125 15.328125 C 7.148438 15.328125 6.84375 15.371094 6.898438 15.425781 M 22.195312 17 C 22.921875 17.039062 24.15625 17.039062 24.941406 17.003906 C 25.730469 16.964844 25.136719 16.9375 23.628906 16.933594 C 22.117188 16.933594 21.472656 16.964844 22.195312 17 M 3.578125 17.675781 C 2.917969 18.363281 2.859375 19.011719 3.328125 20.386719 C 3.808594 21.796875 4.375 22.609375 4.882812 22.609375 C 5.074219 22.609375 6.148438 22.167969 7.273438 21.628906 C 8.394531 21.089844 10.0625 20.390625 10.980469 20.074219 C 11.898438 19.757812 13.214844 19.226562 13.910156 18.898438 L 15.171875 18.296875 L 12.242188 18.058594 C 10.632812 17.929688 8.347656 17.695312 7.164062 17.535156 C 4.347656 17.152344 4.066406 17.164062 3.578125 17.675781 M 6.304688 18.488281 C 6.539062 18.714844 8.394531 18.925781 9.019531 18.796875 C 9.691406 18.660156 9.683594 18.652344 8.628906 18.527344 C 7.359375 18.371094 6.167969 18.351562 6.304688 18.488281 M 9.144531 19.265625 C 7.976562 19.511719 6.96875 19.757812 6.90625 19.816406 C 6.847656 19.878906 7.453125 19.925781 8.25 19.921875 C 9.378906 19.921875 9.9375 19.816406 10.734375 19.453125 C 11.730469 19 12.027344 18.753906 11.519531 18.796875 C 11.386719 18.808594 10.316406 19.019531 9.144531 19.265625 M 10.464844 21.433594 C 7.96875 22.660156 5.785156 23.78125 5.609375 23.925781 C 5.144531 24.308594 5.222656 24.839844 5.804688 25.234375 C 6.082031 25.421875 6.929688 26.117188 7.6875 26.78125 C 9.742188 28.578125 10.710938 29.171875 11.75 29.265625 C 12.464844 29.332031 12.757812 29.265625 13.199219 28.921875 L 13.753906 28.496094 L 13.054688 27.796875 C 11.933594 26.675781 12.148438 26.246094 13.824219 26.246094 C 14.667969 26.246094 14.675781 26.242188 14.992188 25.3125 C 15.210938 24.671875 15.292969 23.871094 15.253906 22.773438 L 15.195312 21.171875 L 14.621094 22.03125 C 13.546875 23.640625 12.15625 25.890625 12.15625 26.023438 C 12.15625 26.09375 11.96875 26.449219 11.742188 26.8125 C 11.417969 27.332031 11.296875 27.410156 11.167969 27.183594 C 10.941406 26.785156 11.304688 25.34375 11.859375 24.425781 C 12.117188 24.007812 12.996094 22.957031 13.8125 22.097656 C 15.085938 20.753906 15.292969 20.4375 15.292969 19.847656 C 15.292969 19.46875 15.226562 19.167969 15.148438 19.183594 C 15.066406 19.195312 12.957031 20.210938 10.464844 21.433594 M 22.695312 20.453125 C 24.664062 20.484375 27.886719 20.484375 29.851562 20.453125 C 31.820312 20.421875 30.210938 20.394531 26.273438 20.394531 C 22.339844 20.394531 20.726562 20.421875 22.695312 20.453125 M 11.273438 22.160156 C 9.171875 23.085938 8.90625 23.25 8.617188 23.777344 C 8.488281 24.011719 9.03125 23.816406 10.371094 23.148438 C 11.976562 22.34375 13.710938 21.257812 13.332031 21.289062 C 13.28125 21.292969 12.351562 21.6875 11.273438 22.160156 M 19.070312 22.164062 C 19.257812 22.214844 19.566406 22.214844 19.753906 22.164062 C 19.945312 22.117188 19.789062 22.078125 19.410156 22.078125 C 19.035156 22.078125 18.878906 22.117188 19.070312 22.164062 M 22.695312 23.902344 C 24.664062 23.933594 27.886719 23.933594 29.851562 23.902344 C 31.820312 23.867188 30.210938 23.84375 26.273438 23.84375 C 22.339844 23.84375 20.726562 23.867188 22.695312 23.902344 M 19.066406 28.355469 C 19.066406 28.722656 19.105469 28.875 19.15625 28.691406 C 19.203125 28.507812 19.203125 28.203125 19.15625 28.019531 C 19.105469 27.835938 19.066406 27.988281 19.066406 28.355469 M 23.765625 30.175781 C 23.769531 30.492188 23.8125 30.597656 23.863281 30.410156 C 23.910156 30.226562 23.90625 29.964844 23.855469 29.835938 C 23.800781 29.707031 23.761719 29.859375 23.765625 30.175781 M 22.972656 30.652344 C 22.972656 30.917969 23.015625 31.027344 23.070312 30.894531 C 23.125 30.761719 23.125 30.546875 23.070312 30.414062 C 23.015625 30.28125 22.972656 30.390625 22.972656 30.652344 M 25.4375 32.324219 C 25.785156 32.367188 26.402344 32.367188 26.808594 32.328125 C 27.214844 32.285156 26.929688 32.25 26.175781 32.25 C 25.421875 32.25 25.089844 32.28125 25.4375 32.324219 M 22.402344 36.546875 C 24.746094 36.574219 28.585938 36.574219 30.929688 36.546875 C 33.277344 36.515625 31.359375 36.488281 26.667969 36.488281 C 21.976562 36.488281 20.054688 36.515625 22.402344 36.546875 "/>
<path style=" stroke:none;fill-rule:evenodd;fill:rgb(91.372549%,91.372549%,91.372549%);fill-opacity:1;" d="M 11.46875 2.683594 C 9.117188 3.144531 6.488281 4.539062 5.121094 6.058594 C 4.15625 7.128906 3.226562 9.308594 2.828125 11.4375 C 2.410156 13.664062 2.222656 19.589844 2.53125 20.824219 C 2.65625 21.332031 3.214844 22.644531 3.769531 23.746094 C 4.53125 25.261719 5.066406 26.027344 5.964844 26.910156 C 7.40625 28.316406 9.710938 29.882812 11.375 30.589844 L 12.601562 31.109375 L 13.355469 30.257812 C 14.15625 29.351562 14.242188 29.128906 13.90625 28.800781 C 13.753906 28.652344 13.550781 28.722656 13.191406 29.050781 C 12.078125 30.054688 10.34375 29.375 7.503906 26.816406 C 6.902344 26.273438 6.207031 25.738281 5.960938 25.628906 C 5.308594 25.339844 5 24.371094 5.417969 23.921875 C 5.734375 23.582031 11.90625 20.5 12.273438 20.5 C 12.375 20.5 13.0625 20.15625 13.800781 19.734375 C 14.539062 19.3125 15.21875 18.96875 15.316406 18.96875 C 15.410156 18.96875 15.488281 20.207031 15.488281 21.722656 C 15.488281 23.78125 15.414062 24.65625 15.183594 25.191406 C 15.015625 25.585938 14.925781 25.953125 14.984375 26.011719 C 15.109375 26.128906 17.316406 26.113281 24.933594 25.9375 C 30.257812 25.8125 30.367188 25.820312 31.039062 26.226562 C 31.417969 26.453125 31.777344 26.773438 31.84375 26.9375 C 31.90625 27.101562 31.960938 28.253906 31.960938 29.496094 C 31.960938 31.273438 31.898438 31.808594 31.667969 31.996094 C 31.503906 32.125 31.371094 32.160156 31.367188 32.066406 C 31.363281 31.976562 31.269531 32.050781 31.160156 32.234375 C 31.050781 32.417969 30.746094 32.570312 30.480469 32.570312 C 30.214844 32.570312 30 32.648438 30 32.742188 C 30 32.839844 29.84375 32.886719 29.65625 32.851562 C 29.238281 32.769531 21.65625 32.539062 18.136719 32.5 L 15.589844 32.472656 L 15.472656 33.335938 C 15.320312 34.4375 15.574219 35.328125 16.171875 35.789062 C 16.613281 36.128906 17.210938 36.15625 26.015625 36.257812 C 36.441406 36.375 36.25 36.394531 36.671875 35.144531 C 37.015625 34.121094 36.894531 11.183594 36.542969 10.601562 C 36.105469 9.886719 35.09375 9.707031 32.34375 9.851562 L 29.847656 9.984375 L 28.898438 8.585938 C 26.824219 5.535156 24.636719 3.898438 21.667969 3.175781 C 19.21875 2.578125 13.449219 2.300781 11.46875 2.683594 M 14.019531 3.148438 C 13.910156 3.191406 13.582031 3.277344 13.285156 3.339844 C 12.992188 3.402344 12.609375 3.664062 12.4375 3.921875 C 12.042969 4.507812 12.238281 5.171875 13.355469 7.054688 C 13.78125 7.773438 14.425781 9.035156 14.792969 9.851562 C 15.378906 11.175781 15.480469 11.300781 15.667969 10.957031 C 16.0625 10.234375 16.492188 9.960938 17.238281 9.960938 L 17.976562 9.960938 L 18.375 7.757812 L 18.402344 8.859375 C 18.429688 9.894531 18.460938 9.960938 18.910156 9.960938 C 19.527344 9.960938 19.566406 9.890625 19.800781 8.210938 C 19.914062 7.4375 20.140625 6.253906 20.308594 5.585938 C 20.699219 4.042969 20.613281 3.832031 19.605469 3.832031 C 19.167969 3.832031 18.578125 3.683594 18.296875 3.503906 C 17.929688 3.269531 17.285156 3.164062 16 3.125 C 15.019531 3.097656 14.128906 3.109375 14.019531 3.148438 M 9.089844 4.503906 C 7.699219 5.179688 6.328125 6.519531 6.167969 7.355469 C 5.988281 8.289062 6.222656 9.125 6.863281 9.832031 C 7.589844 10.636719 14.863281 15.519531 15.335938 15.519531 C 15.421875 15.519531 15.488281 15.003906 15.488281 14.375 C 15.488281 13.105469 15.15625 12.171875 13.164062 7.875 C 12.507812 6.464844 12.027344 5.222656 12.09375 5.117188 C 12.164062 5.007812 12.125 4.980469 12.007812 5.046875 C 11.894531 5.117188 11.636719 4.964844 11.4375 4.707031 C 10.890625 3.992188 10.25 3.9375 9.089844 4.503906 M 22.058594 4.667969 C 21.675781 5.5625 20.761719 9.582031 20.894531 9.792969 C 20.953125 9.886719 22.628906 9.960938 24.621094 9.960938 C 27.636719 9.960938 28.234375 9.917969 28.234375 9.6875 C 28.234375 9.535156 28.144531 9.355469 28.035156 9.289062 C 27.925781 9.222656 27.472656 8.691406 27.03125 8.105469 C 26.589844 7.519531 26.078125 6.902344 25.894531 6.730469 C 23.910156 4.871094 22.890625 4.023438 22.636719 4.023438 C 22.46875 4.023438 22.210938 4.3125 22.058594 4.667969 M 15.027344 6.226562 C 15.09375 6.753906 15.269531 7.441406 15.414062 7.757812 C 15.675781 8.324219 15.679688 8.320312 15.5625 7.480469 C 15.496094 7.011719 15.324219 6.324219 15.175781 5.949219 L 14.910156 5.269531 L 15.027344 6.226562 M 12.429688 9.542969 C 12.546875 10.183594 13.738281 12.695312 13.867188 12.570312 C 13.953125 12.488281 12.984375 10.078125 12.589844 9.386719 C 12.320312 8.914062 12.320312 8.914062 12.429688 9.542969 M 4.554688 9.6875 C 4.023438 10.046875 3.785156 10.8125 3.519531 13.003906 C 3.273438 15.011719 3.382812 16.003906 3.882812 16.261719 C 4.066406 16.355469 5.320312 16.492188 6.667969 16.566406 C 8.015625 16.640625 9.96875 16.863281 11.011719 17.066406 C 12.050781 17.269531 13.488281 17.433594 14.199219 17.433594 C 15.449219 17.433594 15.488281 17.417969 15.488281 16.953125 C 15.488281 16.457031 14.953125 16.054688 12.160156 14.464844 C 10.769531 13.671875 8.773438 12.265625 7.253906 11.007812 C 5.476562 9.53125 5.070312 9.332031 4.554688 9.6875 M 9.511719 9.769531 C 9.703125 9.980469 9.910156 10.152344 9.960938 10.152344 C 10.015625 10.152344 9.902344 9.980469 9.707031 9.769531 C 9.511719 9.558594 9.308594 9.386719 9.253906 9.386719 C 9.199219 9.386719 9.316406 9.558594 9.511719 9.769531 M 9.230469 14.5 C 9.210938 14.808594 9.371094 14.886719 10.296875 15.03125 L 11.078125 15.152344 L 10.421875 14.859375 C 10.058594 14.695312 9.691406 14.605469 9.605469 14.660156 C 9.515625 14.710938 9.402344 14.644531 9.347656 14.515625 C 9.273438 14.339844 9.242188 14.339844 9.230469 14.5 M 18.519531 15.414062 C 18.328125 15.691406 18.253906 16.042969 18.332031 16.28125 C 18.628906 17.191406 19.695312 17.417969 23.890625 17.449219 C 26.304688 17.46875 26.539062 17.4375 26.949219 17.0625 C 27.484375 16.570312 27.457031 15.910156 26.882812 15.347656 C 26.492188 14.964844 26.269531 14.945312 22.652344 14.945312 L 18.832031 14.945312 L 18.519531 15.414062 M 7.746094 15.519531 C 7.960938 15.609375 8.3125 15.679688 8.53125 15.675781 C 8.84375 15.671875 8.824219 15.640625 8.429688 15.519531 C 7.761719 15.308594 7.246094 15.308594 7.746094 15.519531 M 3.609375 17.382812 C 3.230469 17.640625 2.941406 18.347656 2.941406 19.011719 C 2.941406 19.890625 3.652344 21.882812 4.148438 22.402344 C 4.667969 22.949219 4.976562 22.875 7.746094 21.5625 C 8.929688 20.996094 10.386719 20.390625 10.980469 20.214844 C 11.574219 20.039062 12.851562 19.523438 13.824219 19.074219 L 15.589844 18.253906 L 14.707031 18.140625 C 13.125 17.933594 6.800781 17.367188 5.292969 17.300781 C 4.484375 17.261719 3.726562 17.300781 3.609375 17.382812 M 21.425781 18.542969 C 18.890625 18.589844 18.617188 18.628906 18.429688 18.96875 C 18.097656 19.578125 18.394531 20.265625 19.085938 20.488281 C 20.164062 20.828125 31.941406 21.300781 32.941406 21.042969 C 33.457031 20.910156 33.734375 20.671875 33.605469 20.46875 C 33.53125 20.34375 33.640625 20.351562 33.894531 20.484375 C 34.246094 20.667969 34.285156 20.652344 34.179688 20.378906 C 34.097656 20.171875 34.128906 20.101562 34.265625 20.183594 C 34.558594 20.359375 34.308594 19.566406 33.890625 18.996094 C 33.570312 18.554688 33.539062 18.550781 28.890625 18.519531 C 26.320312 18.503906 22.960938 18.511719 21.425781 18.542969 M 8.1875 18.710938 C 8.320312 18.765625 8.542969 18.765625 8.675781 18.710938 C 8.8125 18.65625 8.699219 18.613281 8.429688 18.613281 C 8.160156 18.613281 8.050781 18.65625 8.1875 18.710938 M 9.351562 19.355469 C 7.628906 19.734375 7.261719 19.925781 8.25 19.925781 C 9.082031 19.921875 10.359375 19.585938 10.875 19.234375 C 11.335938 18.917969 11.308594 18.917969 9.351562 19.355469 M 14.199219 21.890625 C 12.515625 23.671875 11.710938 24.757812 11.449219 25.609375 C 10.855469 27.546875 11.253906 27.65625 12.152344 25.800781 C 12.46875 25.152344 13.257812 23.820312 13.902344 22.847656 C 14.546875 21.871094 15.050781 21.074219 15.019531 21.074219 C 14.988281 21.074219 14.621094 21.441406 14.199219 21.890625 M 24.511719 21.855469 C 22.730469 21.921875 20.675781 21.992188 19.945312 22.007812 C 18.738281 22.03125 18.597656 22.074219 18.398438 22.503906 C 18.222656 22.878906 18.242188 23.070312 18.496094 23.449219 C 18.75 23.828125 19.035156 23.941406 19.945312 24.039062 C 20.570312 24.105469 21.386719 24.199219 21.765625 24.25 C 23.25 24.445312 33.175781 24.546875 33.0625 24.367188 C 32.996094 24.265625 33.078125 24.128906 33.246094 24.066406 C 33.417969 24.003906 33.5 24.035156 33.429688 24.140625 C 33.363281 24.246094 33.445312 24.277344 33.617188 24.214844 C 33.785156 24.152344 33.921875 23.988281 33.921875 23.847656 C 33.921875 23.710938 34.011719 23.566406 34.121094 23.53125 C 34.226562 23.496094 34.355469 23.273438 34.402344 23.03125 C 34.460938 22.746094 34.414062 22.640625 34.269531 22.730469 C 34.128906 22.816406 34.09375 22.753906 34.171875 22.554688 C 34.257812 22.335938 34.210938 22.277344 34.007812 22.351562 C 33.851562 22.410156 33.726562 22.363281 33.726562 22.246094 C 33.726562 22.128906 33.59375 22.03125 33.429688 22.03125 C 33.269531 22.03125 33.136719 21.957031 33.136719 21.863281 C 33.136719 21.667969 29.363281 21.664062 24.511719 21.855469 M 10.425781 22.699219 C 9.851562 22.9375 9.234375 23.273438 9.054688 23.453125 C 8.871094 23.628906 9.367188 23.46875 10.148438 23.097656 C 10.929688 22.726562 11.570312 22.375 11.570312 22.324219 C 11.570312 22.269531 11.546875 22.234375 11.519531 22.246094 C 11.492188 22.257812 11 22.460938 10.425781 22.699219 M 17.40625 28.019531 C 17.332031 28.234375 17.335938 28.992188 17.421875 30.511719 C 17.464844 31.308594 18.039062 31.207031 18.039062 30.398438 C 18.039062 29.617188 18.113281 29.535156 18.730469 29.648438 C 19.136719 29.726562 19.214844 29.851562 19.214844 30.402344 C 19.214844 30.929688 19.285156 31.050781 19.558594 31 C 19.847656 30.949219 19.910156 30.683594 19.957031 29.359375 C 20.011719 27.878906 19.992188 27.78125 19.617188 27.78125 C 19.304688 27.78125 19.214844 27.90625 19.214844 28.34375 C 19.214844 28.734375 19.097656 28.941406 18.824219 29.023438 C 18.273438 29.195312 18.039062 28.996094 18.039062 28.34375 C 18.039062 27.773438 17.578125 27.539062 17.40625 28.019531 M 20.195312 28.066406 C 20.195312 28.246094 20.378906 28.355469 20.675781 28.355469 C 21.136719 28.355469 21.160156 28.417969 21.214844 29.648438 C 21.261719 30.644531 21.34375 30.941406 21.570312 30.941406 C 21.796875 30.941406 21.875 30.644531 21.921875 29.648438 C 21.972656 28.511719 22.023438 28.355469 22.363281 28.355469 C 22.574219 28.355469 22.746094 28.226562 22.746094 28.066406 C 22.746094 27.84375 22.472656 27.78125 21.46875 27.78125 C 20.46875 27.78125 20.195312 27.84375 20.195312 28.066406 M 23.179688 29.34375 C 23.214844 30.386719 23.316406 30.9375 23.480469 30.988281 C 23.648438 31.042969 23.730469 30.8125 23.738281 30.238281 C 23.75 29.480469 23.769531 29.449219 23.953125 29.886719 C 24.53125 31.246094 24.796875 31.324219 25.136719 30.234375 L 25.390625 29.410156 L 25.488281 30.21875 C 25.648438 31.539062 26.042969 30.953125 26.097656 29.3125 C 26.144531 27.902344 26.136719 27.875 25.648438 27.816406 C 25.203125 27.765625 25.125 27.855469 24.90625 28.679688 L 24.664062 29.601562 L 24.382812 28.691406 C 24.148438 27.917969 24.03125 27.78125 23.613281 27.78125 C 23.125 27.78125 23.121094 27.789062 23.179688 29.34375 M 26.667969 29.28125 L 26.667969 30.808594 L 27.695312 30.890625 C 28.644531 30.960938 29.242188 30.808594 28.984375 30.558594 C 28.925781 30.5 28.5625 30.441406 28.171875 30.425781 L 27.46875 30.402344 L 27.410156 29.140625 C 27.363281 28.117188 27.289062 27.867188 27.011719 27.816406 C 26.707031 27.757812 26.667969 27.929688 26.667969 29.28125 "/>
<path style=" stroke:none;fill-rule:evenodd;fill:rgb(17.647059%,19.215686%,31.372549%);fill-opacity:1;" d="M 36.972656 13.367188 C 36.910156 13.425781 36.863281 18.375 36.863281 24.359375 L 36.863281 35.246094 L 36.289062 35.871094 L 35.71875 36.496094 L 26.976562 36.554688 L 18.234375 36.609375 L 18.234375 37.09375 C 18.234375 37.375 18.476562 37.816406 18.808594 38.140625 L 19.382812 38.699219 L 37.589844 38.699219 L 38.085938 38.253906 L 38.578125 37.804688 L 38.722656 28.53125 C 38.804688 23.429688 38.835938 18.164062 38.796875 16.828125 C 38.730469 14.597656 38.6875 14.359375 38.265625 13.921875 C 37.804688 13.441406 37.171875 13.171875 36.972656 13.367188 M 18.503906 15.640625 C 18.230469 16.710938 18.398438 16.757812 22.710938 16.816406 L 26.65625 16.867188 L 26.777344 16.398438 C 27.082031 15.214844 27.148438 15.234375 22.699219 15.179688 L 18.636719 15.128906 L 18.503906 15.640625 M 18.667969 18.8125 C 18.363281 19.109375 18.363281 19.78125 18.667969 20.078125 C 18.839844 20.25 20.785156 20.308594 26.207031 20.308594 C 33.230469 20.308594 33.523438 20.292969 33.71875 19.9375 C 33.996094 19.433594 33.976562 19.238281 33.613281 18.886719 C 33.34375 18.621094 32.390625 18.585938 26.105469 18.585938 C 20.765625 18.585938 18.839844 18.644531 18.667969 18.8125 M 19.3125 22.203125 C 18.570312 22.3125 18.53125 22.355469 18.53125 22.992188 L 18.53125 23.660156 L 26.019531 23.710938 C 33.398438 23.761719 33.515625 23.753906 33.726562 23.367188 C 34.015625 22.84375 33.8125 22.292969 33.277344 22.152344 C 32.714844 22.003906 20.34375 22.050781 19.3125 22.203125 M 12.597656 26.375 C 12.222656 26.523438 12.308594 27.105469 12.765625 27.511719 C 12.996094 27.710938 13.441406 28.199219 13.761719 28.59375 L 14.347656 29.3125 L 13.347656 30.40625 C 12.324219 31.527344 12.085938 32.183594 12.695312 32.191406 C 19.960938 32.269531 30.902344 32.136719 31.113281 31.96875 C 31.464844 31.683594 31.484375 26.816406 31.136719 26.476562 C 30.960938 26.304688 28.652344 26.25 21.871094 26.261719 C 16.90625 26.269531 12.734375 26.320312 12.597656 26.375 M 17.253906 29.410156 C 17.253906 31.019531 17.261719 31.039062 17.746094 31.039062 C 18.175781 31.039062 18.234375 30.953125 18.234375 30.367188 C 18.234375 29.835938 18.3125 29.695312 18.605469 29.695312 C 18.996094 29.695312 19.214844 30.050781 19.214844 30.667969 C 19.214844 30.910156 19.351562 31.039062 19.609375 31.039062 C 19.96875 31.039062 20 30.910156 20 29.410156 C 20 27.800781 19.996094 27.78125 19.511719 27.78125 C 19.097656 27.78125 19.019531 27.871094 19.019531 28.355469 C 19.019531 28.800781 18.933594 28.929688 18.628906 28.929688 C 18.324219 28.929688 18.234375 28.800781 18.234375 28.355469 C 18.234375 27.871094 18.160156 27.78125 17.746094 27.78125 C 17.261719 27.78125 17.253906 27.800781 17.253906 29.410156 M 20.195312 28.164062 C 20.195312 28.445312 20.328125 28.546875 20.6875 28.546875 C 21.160156 28.546875 21.175781 28.589844 21.175781 29.792969 C 21.175781 30.910156 21.214844 31.039062 21.570312 31.039062 C 21.921875 31.039062 21.960938 30.910156 21.960938 29.792969 C 21.960938 28.589844 21.976562 28.546875 22.449219 28.546875 C 22.921875 28.546875 22.941406 28.589844 22.941406 29.792969 C 22.941406 30.992188 22.957031 31.039062 23.429688 31.039062 C 23.832031 31.039062 23.925781 30.941406 23.941406 30.511719 L 23.960938 29.984375 L 24.097656 30.460938 C 24.308594 31.21875 24.992188 31.195312 25.242188 30.425781 L 25.449219 29.792969 L 25.46875 30.414062 C 25.484375 30.902344 25.574219 31.039062 25.882812 31.039062 C 26.242188 31.039062 26.273438 30.910156 26.273438 29.410156 L 26.273438 27.78125 L 25.695312 27.78125 C 25.179688 27.78125 25.085938 27.871094 24.875 28.59375 L 24.636719 29.410156 L 24.445312 28.59375 L 24.257812 27.78125 L 22.226562 27.78125 C 20.328125 27.78125 20.195312 27.804688 20.195312 28.164062 M 26.667969 29.410156 L 26.667969 31.039062 L 27.84375 31.039062 C 28.890625 31.039062 29.019531 30.996094 29.019531 30.652344 C 29.019531 30.335938 28.890625 30.269531 28.234375 30.269531 L 27.449219 30.269531 L 27.449219 29.027344 C 27.449219 27.90625 27.410156 27.78125 27.058594 27.78125 C 26.699219 27.78125 26.667969 27.90625 26.667969 29.410156 "/>
<path style=" stroke:none;fill-rule:evenodd;fill:rgb(80.784314%,87.058824%,65.882353%);fill-opacity:1;" d="M 11.765625 2.472656 C 11.496094 2.546875 12.332031 2.578125 13.628906 2.539062 C 16.71875 2.445312 17.121094 2.34375 14.410156 2.339844 C 13.226562 2.339844 12.035156 2.398438 11.765625 2.472656 M 17.601562 2.625 C 17.84375 2.671875 18.195312 2.671875 18.382812 2.621094 C 18.570312 2.574219 18.371094 2.535156 17.941406 2.539062 C 17.511719 2.542969 17.355469 2.582031 17.601562 2.625 M 10.097656 2.875 C 9.851562 2.976562 9.816406 3.039062 10 3.039062 C 10.160156 3.039062 10.46875 2.964844 10.6875 2.875 C 10.933594 2.769531 10.96875 2.710938 10.785156 2.710938 C 10.621094 2.710938 10.3125 2.785156 10.097656 2.875 M 19.65625 2.8125 C 19.84375 2.863281 20.15625 2.863281 20.34375 2.8125 C 20.53125 2.765625 20.378906 2.726562 20 2.726562 C 19.621094 2.726562 19.46875 2.765625 19.65625 2.8125 M 20.945312 3.003906 C 21.085938 3.058594 21.253906 3.054688 21.320312 2.988281 C 21.382812 2.925781 21.269531 2.878906 21.0625 2.890625 C 20.832031 2.898438 20.789062 2.945312 20.945312 3.003906 M 14.851562 3.207031 C 15.3125 3.246094 16.0625 3.246094 16.519531 3.207031 C 16.976562 3.164062 16.601562 3.132812 15.6875 3.132812 C 14.769531 3.132812 14.394531 3.164062 14.851562 3.207031 M 12.808594 3.59375 C 12.601562 3.777344 12.53125 3.867188 12.648438 3.792969 C 12.765625 3.71875 13.078125 3.570312 13.34375 3.46875 C 13.648438 3.351562 13.707031 3.277344 13.503906 3.269531 C 13.324219 3.261719 13.011719 3.40625 12.808594 3.59375 M 18.136719 3.640625 C 18.558594 3.851562 18.996094 4.023438 19.105469 4.023438 C 19.21875 4.023438 18.980469 3.851562 18.578125 3.640625 C 18.171875 3.429688 17.738281 3.257812 17.605469 3.257812 C 17.476562 3.257812 17.714844 3.429688 18.136719 3.640625 M 20.125 3.960938 C 20.246094 4.046875 20.394531 4.292969 20.453125 4.503906 C 20.539062 4.804688 20.554688 4.789062 20.527344 4.421875 C 20.507812 4.167969 20.359375 3.921875 20.195312 3.878906 C 20 3.828125 19.976562 3.855469 20.125 3.960938 M 10.160156 4.152344 C 10.300781 4.210938 10.46875 4.203125 10.535156 4.140625 C 10.601562 4.074219 10.484375 4.03125 10.277344 4.039062 C 10.050781 4.046875 10.003906 4.09375 10.160156 4.152344 M 22.265625 4.195312 C 22.207031 4.292969 22.324219 4.328125 22.527344 4.277344 C 22.730469 4.222656 22.957031 4.273438 23.027344 4.390625 C 23.101562 4.503906 23.265625 4.59375 23.394531 4.59375 C 23.703125 4.582031 22.9375 4.023438 22.621094 4.023438 C 22.484375 4.023438 22.328125 4.101562 22.265625 4.195312 M 8.96875 4.515625 C 8.238281 4.90625 8.28125 5.066406 9.019531 4.695312 C 9.34375 4.53125 9.609375 4.355469 9.609375 4.304688 C 9.609375 4.183594 9.585938 4.191406 8.96875 4.515625 M 10.882812 4.40625 C 10.949219 4.511719 11.089844 4.597656 11.199219 4.597656 C 11.308594 4.597656 11.339844 4.511719 11.273438 4.40625 C 11.207031 4.300781 11.066406 4.214844 10.957031 4.214844 C 10.847656 4.214844 10.816406 4.300781 10.882812 4.40625 M 12.171875 4.519531 C 12.183594 4.742188 12.226562 4.785156 12.289062 4.632812 C 12.347656 4.496094 12.339844 4.332031 12.273438 4.265625 C 12.210938 4.203125 12.164062 4.316406 12.171875 4.519531 M 25.53125 4.871094 C 26.015625 5.234375 26.832031 5.988281 27.347656 6.550781 C 28.058594 7.328125 28.132812 7.378906 27.664062 6.765625 C 26.957031 5.847656 25.15625 4.214844 24.851562 4.214844 C 24.742188 4.214844 25.046875 4.511719 25.53125 4.871094 M 11.65625 5.222656 C 12.074219 5.847656 12.074219 5.847656 12.074219 5.375 C 12.074219 5.167969 12.035156 5.039062 11.984375 5.085938 C 11.9375 5.132812 11.765625 5.0625 11.601562 4.933594 C 11.386719 4.757812 11.402344 4.839844 11.65625 5.222656 M 25.191406 6.28125 C 26.050781 7.148438 26.789062 7.855469 26.828125 7.855469 C 26.984375 7.855469 25.910156 6.742188 24.800781 5.753906 C 23.890625 4.945312 23.976562 5.0625 25.191406 6.28125 M 5.121094 5.839844 C 4.679688 6.3125 4.3125 6.757812 4.3125 6.828125 C 4.3125 6.902344 4.34375 6.925781 4.378906 6.882812 C 4.414062 6.835938 4.820312 6.390625 5.285156 5.890625 C 5.75 5.390625 6.085938 4.980469 6.03125 4.980469 C 5.976562 4.980469 5.566406 5.367188 5.121094 5.839844 M 7.183594 5.847656 C 6.683594 6.320312 6.273438 6.816406 6.273438 6.941406 C 6.273438 7.070312 6.417969 6.972656 6.59375 6.726562 C 6.769531 6.480469 7.234375 5.992188 7.625 5.636719 C 8.015625 5.28125 8.28125 4.988281 8.214844 4.988281 C 8.148438 4.984375 7.6875 5.371094 7.183594 5.847656 M 14.917969 5.078125 C 14.9375 5.441406 15.265625 6.050781 15.277344 5.746094 C 15.285156 5.589844 15.203125 5.332031 15.097656 5.171875 C 14.992188 5.015625 14.914062 4.972656 14.917969 5.078125 M 20.210938 5.476562 C 20.222656 5.699219 20.265625 5.746094 20.328125 5.59375 C 20.386719 5.453125 20.378906 5.289062 20.316406 5.226562 C 20.25 5.160156 20.203125 5.273438 20.210938 5.476562 M 12.550781 5.738281 C 12.550781 5.835938 12.636719 5.96875 12.742188 6.035156 C 12.855469 6.101562 12.886719 6.023438 12.820312 5.851562 C 12.691406 5.523438 12.550781 5.460938 12.550781 5.738281 M 14.941406 6.609375 C 14.945312 6.925781 14.988281 7.03125 15.039062 6.84375 C 15.085938 6.660156 15.085938 6.402344 15.03125 6.269531 C 14.976562 6.140625 14.9375 6.292969 14.941406 6.609375 M 9.804688 6.453125 C 9.804688 6.554688 10.070312 6.882812 10.390625 7.183594 C 10.714844 7.488281 10.976562 7.65625 10.972656 7.554688 C 10.960938 7.191406 9.804688 6.101562 9.804688 6.453125 M 13.136719 6.707031 C 13.253906 6.917969 13.390625 7.089844 13.445312 7.089844 C 13.5 7.089844 13.449219 6.917969 13.332031 6.707031 C 13.21875 6.496094 13.078125 6.324219 13.027344 6.324219 C 12.972656 6.324219 13.023438 6.496094 13.136719 6.707031 M 12.554688 6.800781 C 12.554688 6.90625 12.640625 7.121094 12.746094 7.28125 C 12.847656 7.4375 12.933594 7.480469 12.933594 7.375 C 12.933594 7.269531 12.847656 7.054688 12.746094 6.898438 C 12.640625 6.738281 12.554688 6.695312 12.554688 6.800781 M 19.835938 7.089844 C 19.835938 7.351562 19.878906 7.460938 19.933594 7.328125 C 19.988281 7.195312 19.988281 6.980469 19.933594 6.847656 C 19.878906 6.71875 19.835938 6.824219 19.835938 7.089844 M 21.386719 7.007812 C 21.398438 7.230469 21.445312 7.277344 21.507812 7.125 C 21.5625 6.988281 21.554688 6.820312 21.492188 6.757812 C 21.425781 6.695312 21.378906 6.808594 21.386719 7.007812 M 9.328125 7.0625 C 9.269531 7.160156 9.351562 7.34375 9.511719 7.472656 C 9.75 7.667969 9.804688 7.65625 9.804688 7.410156 C 9.804688 7.054688 9.484375 6.820312 9.328125 7.0625 M 15.503906 7.199219 C 15.515625 7.421875 15.5625 7.46875 15.625 7.316406 C 15.679688 7.179688 15.671875 7.011719 15.609375 6.949219 C 15.542969 6.886719 15.496094 7 15.503906 7.199219 M 6.128906 7.949219 C 6.128906 8.371094 6.171875 8.523438 6.21875 8.285156 C 6.265625 8.046875 6.261719 7.699219 6.214844 7.515625 C 6.164062 7.335938 6.125 7.53125 6.128906 7.949219 M 21.191406 7.773438 C 21.203125 8 21.246094 8.042969 21.308594 7.890625 C 21.367188 7.753906 21.359375 7.585938 21.292969 7.523438 C 21.230469 7.460938 21.183594 7.574219 21.191406 7.773438 M 14.058594 8.332031 C 14.238281 8.699219 14.417969 8.964844 14.460938 8.925781 C 14.550781 8.835938 13.957031 7.664062 13.820312 7.664062 C 13.773438 7.664062 13.878906 7.964844 14.058594 8.332031 M 15.683594 8 C 15.679688 8.285156 15.652344 8.292969 15.488281 8.046875 C 15.386719 7.886719 15.300781 7.84375 15.304688 7.949219 C 15.304688 8.054688 15.4375 8.308594 15.59375 8.515625 C 15.867188 8.867188 15.882812 8.855469 15.882812 8.273438 C 15.882812 7.9375 15.839844 7.664062 15.785156 7.664062 C 15.730469 7.664062 15.683594 7.816406 15.683594 8 M 18.113281 7.941406 C 18.054688 8.089844 18.039062 8.371094 18.082031 8.5625 C 18.128906 8.777344 18.199219 8.675781 18.261719 8.285156 C 18.367188 7.632812 18.300781 7.46875 18.113281 7.941406 M 28.234375 7.734375 C 28.234375 7.777344 28.390625 7.925781 28.578125 8.070312 C 28.890625 8.308594 28.894531 8.300781 28.652344 8 C 28.394531 7.679688 28.234375 7.578125 28.234375 7.734375 M 3.652344 8.148438 C 3.460938 8.632812 3.519531 8.757812 3.75 8.367188 C 3.863281 8.175781 3.917969 7.976562 3.867188 7.929688 C 3.816406 7.878906 3.71875 7.980469 3.652344 8.148438 M 19.644531 8.527344 C 19.648438 8.84375 19.695312 8.949219 19.742188 8.761719 C 19.792969 8.574219 19.789062 8.316406 19.738281 8.1875 C 19.683594 8.058594 19.640625 8.210938 19.644531 8.527344 M 27.035156 8.371094 C 27.15625 8.601562 27.34375 8.84375 27.449219 8.910156 C 27.558594 8.972656 27.738281 9.195312 27.847656 9.398438 C 28.046875 9.761719 27.957031 9.769531 24.507812 9.769531 L 20.960938 9.769531 L 21.066406 9.050781 C 21.167969 8.371094 21.164062 8.363281 20.980469 8.910156 C 20.628906 9.953125 20.660156 9.960938 24.601562 9.960938 C 27.382812 9.960938 28.234375 9.90625 28.226562 9.722656 C 28.222656 9.589844 27.902344 9.140625 27.515625 8.71875 C 27.128906 8.296875 26.914062 8.140625 27.035156 8.371094 M 13.339844 8.527344 C 13.339844 8.632812 13.425781 8.847656 13.53125 9.003906 C 13.632812 9.164062 13.71875 9.207031 13.71875 9.101562 C 13.71875 8.996094 13.632812 8.78125 13.53125 8.621094 C 13.425781 8.464844 13.339844 8.421875 13.339844 8.527344 M 29.273438 9.101562 C 29.726562 9.832031 29.792969 9.871094 30.855469 9.925781 C 31.460938 9.957031 31.960938 9.914062 31.960938 9.828125 C 31.960938 9.746094 31.476562 9.703125 30.882812 9.742188 C 30.289062 9.777344 29.804688 9.734375 29.804688 9.644531 C 29.800781 9.554688 29.578125 9.226562 29.304688 8.910156 L 28.804688 8.335938 L 29.273438 9.101562 M 12.15625 9.089844 C 12.15625 9.675781 12.269531 9.722656 12.410156 9.195312 C 12.464844 8.984375 12.433594 8.765625 12.335938 8.707031 C 12.238281 8.648438 12.15625 8.820312 12.15625 9.089844 M 6.28125 8.964844 C 6.277344 9.101562 6.605469 9.535156 7.011719 9.929688 C 7.417969 10.332031 7.519531 10.390625 7.230469 10.066406 C 6.949219 9.746094 6.621094 9.3125 6.503906 9.101562 C 6.382812 8.890625 6.285156 8.828125 6.28125 8.964844 M 8.765625 9.265625 C 9.027344 9.691406 10.390625 10.78125 10.390625 10.5625 C 10.390625 10.453125 10.214844 10.265625 10.003906 10.15625 C 9.789062 10.042969 9.632812 9.847656 9.660156 9.71875 C 9.683594 9.589844 9.59375 9.503906 9.460938 9.53125 C 9.324219 9.558594 9.214844 9.503906 9.214844 9.410156 C 9.214844 9.3125 9.078125 9.1875 8.914062 9.125 C 8.699219 9.042969 8.65625 9.085938 8.765625 9.265625 M 12.550781 9.375 C 12.550781 9.476562 12.636719 9.609375 12.742188 9.675781 C 12.855469 9.742188 12.886719 9.664062 12.820312 9.492188 C 12.691406 9.160156 12.550781 9.101562 12.550781 9.375 M 14.621094 9.445312 C 14.695312 9.632812 14.804688 9.738281 14.863281 9.679688 C 14.925781 9.621094 14.863281 9.464844 14.730469 9.335938 C 14.535156 9.148438 14.515625 9.171875 14.621094 9.445312 M 4.195312 10.0625 C 4.015625 10.332031 3.902344 10.585938 3.949219 10.625 C 3.992188 10.667969 4.175781 10.449219 4.355469 10.140625 C 4.761719 9.453125 4.640625 9.394531 4.195312 10.0625 M 5.292969 9.648438 C 5.292969 9.691406 5.527344 9.875 5.808594 10.054688 C 6.089844 10.238281 6.261719 10.289062 6.191406 10.175781 C 6.050781 9.953125 5.292969 9.507812 5.292969 9.648438 M 18.429688 9.820312 C 18.429688 9.898438 18.648438 9.960938 18.910156 9.960938 C 19.171875 9.960938 19.429688 9.898438 19.480469 9.820312 C 19.53125 9.738281 19.3125 9.675781 19 9.675781 C 18.6875 9.675781 18.429688 9.738281 18.429688 9.820312 M 17.109375 9.902344 C 17.296875 9.953125 17.605469 9.953125 17.792969 9.902344 C 17.984375 9.855469 17.828125 9.816406 17.449219 9.816406 C 17.074219 9.816406 16.917969 9.855469 17.109375 9.902344 M 15.707031 10.550781 C 15.460938 10.875 15.304688 11.1875 15.359375 11.238281 C 15.414062 11.292969 15.554688 11.164062 15.667969 10.953125 C 15.785156 10.742188 16.019531 10.429688 16.1875 10.265625 C 16.359375 10.097656 16.421875 9.960938 16.324219 9.960938 C 16.230469 9.960938 15.953125 10.226562 15.707031 10.550781 M 14.125 10.25 C 14.125 10.355469 14.210938 10.570312 14.3125 10.730469 C 14.417969 10.886719 14.503906 10.929688 14.503906 10.824219 C 14.503906 10.71875 14.417969 10.503906 14.3125 10.347656 C 14.210938 10.1875 14.125 10.144531 14.125 10.25 M 12.554688 10.441406 C 12.554688 10.546875 12.640625 10.761719 12.746094 10.921875 C 12.847656 11.078125 12.933594 11.121094 12.933594 11.015625 C 12.933594 10.910156 12.847656 10.695312 12.746094 10.539062 C 12.640625 10.378906 12.554688 10.335938 12.554688 10.441406 M 2.777344 10.921875 C 2.777344 11.183594 2.820312 11.292969 2.875 11.160156 C 2.929688 11.027344 2.929688 10.8125 2.875 10.679688 C 2.820312 10.550781 2.777344 10.65625 2.777344 10.921875 M 7.351562 11.207031 C 8.429688 12.183594 9.589844 13.097656 10.292969 13.519531 C 11.117188 14.011719 10.878906 13.78125 9.511719 12.765625 C 8.863281 12.285156 7.9375 11.578125 7.449219 11.195312 L 6.570312 10.492188 L 7.351562 11.207031 M 3.757812 11.304688 C 3.757812 11.566406 3.800781 11.675781 3.855469 11.542969 C 3.910156 11.410156 3.910156 11.195312 3.855469 11.0625 C 3.800781 10.933594 3.757812 11.039062 3.757812 11.304688 M 13.234375 11.835938 C 13.421875 12.214844 13.636719 12.410156 13.765625 12.332031 C 13.90625 12.25 13.945312 12.304688 13.878906 12.480469 C 13.816406 12.632812 13.886719 12.972656 14.035156 13.230469 C 14.359375 13.800781 14.382812 13.5625 14.097656 12.566406 C 13.941406 12.011719 13.839844 11.886719 13.710938 12.085938 C 13.613281 12.234375 13.535156 12.265625 13.53125 12.15625 C 13.53125 12.042969 13.394531 11.785156 13.226562 11.578125 C 12.960938 11.257812 12.960938 11.289062 13.234375 11.835938 M 9.214844 11.574219 C 9.214844 11.625 9.613281 11.933594 10.097656 12.261719 C 10.582031 12.589844 10.980469 12.8125 10.980469 12.757812 C 10.980469 12.707031 10.582031 12.394531 10.097656 12.070312 C 9.613281 11.742188 9.214844 11.519531 9.214844 11.574219 M 36.722656 12.359375 C 36.722656 12.882812 36.761719 13.078125 36.808594 12.785156 C 36.851562 12.496094 36.851562 12.0625 36.804688 11.828125 C 36.757812 11.59375 36.722656 11.832031 36.722656 12.359375 M 2.585938 12.164062 C 2.589844 12.480469 2.636719 12.589844 2.683594 12.402344 C 2.734375 12.214844 2.730469 11.957031 2.675781 11.828125 C 2.625 11.695312 2.582031 11.851562 2.585938 12.164062 M 3.578125 12.742188 C 3.582031 13.164062 3.621094 13.3125 3.667969 13.074219 C 3.714844 12.835938 3.714844 12.492188 3.664062 12.308594 C 3.613281 12.125 3.578125 12.320312 3.578125 12.742188 M 11.261719 13.007812 C 11.402344 13.226562 12.15625 13.675781 12.15625 13.535156 C 12.15625 13.492188 11.925781 13.308594 11.640625 13.125 C 11.359375 12.945312 11.1875 12.890625 11.261719 13.007812 M 2.402344 13.699219 C 2.40625 14.121094 2.445312 14.269531 2.492188 14.03125 C 2.539062 13.792969 2.535156 13.449219 2.488281 13.265625 C 2.4375 13.082031 2.398438 13.277344 2.402344 13.699219 M 15.261719 14.273438 C 15.226562 14.957031 15.261719 15.519531 15.34375 15.519531 C 15.425781 15.519531 15.488281 14.957031 15.488281 14.273438 C 15.488281 13.589844 15.453125 13.027344 15.410156 13.027344 C 15.363281 13.027344 15.296875 13.589844 15.261719 14.273438 M 12.648438 13.894531 C 12.863281 14.066406 13.214844 14.289062 13.429688 14.394531 L 13.824219 14.582031 L 13.429688 14.269531 C 13.214844 14.097656 12.863281 13.875 12.648438 13.769531 L 12.253906 13.582031 L 12.648438 13.894531 M 3.390625 14.65625 C 3.390625 15.183594 3.429688 15.375 3.472656 15.085938 C 3.519531 14.792969 3.519531 14.363281 3.472656 14.128906 C 3.425781 13.890625 3.386719 14.128906 3.390625 14.65625 M 11.273438 14.085938 C 11.871094 14.558594 12.429688 14.835938 12.265625 14.578125 C 12.191406 14.460938 11.851562 14.234375 11.507812 14.070312 C 10.925781 13.796875 10.910156 13.796875 11.273438 14.085938 M 36.722656 14.847656 C 36.722656 15.375 36.761719 15.566406 36.808594 15.277344 C 36.851562 14.984375 36.851562 14.554688 36.804688 14.320312 C 36.757812 14.082031 36.722656 14.320312 36.722656 14.847656 M 9.410156 14.570312 C 9.410156 14.683594 9.5 14.722656 9.609375 14.65625 C 9.714844 14.589844 9.804688 14.5 9.804688 14.453125 C 9.804688 14.40625 9.714844 14.371094 9.609375 14.371094 C 9.5 14.371094 9.410156 14.460938 9.410156 14.570312 M 10.195312 14.753906 C 10.359375 14.855469 10.578125 14.9375 10.6875 14.9375 C 10.792969 14.9375 10.75 14.855469 10.589844 14.753906 C 10.425781 14.648438 10.207031 14.566406 10.097656 14.566406 C 9.988281 14.566406 10.035156 14.648438 10.195312 14.753906 M 14.007812 14.730469 C 14.144531 14.953125 14.902344 15.398438 14.902344 15.261719 C 14.902344 15.214844 14.671875 15.03125 14.386719 14.851562 C 14.105469 14.667969 13.933594 14.617188 14.007812 14.730469 M 10.6875 15.152344 C 10.347656 15.308594 10.367188 15.324219 10.828125 15.261719 C 11.121094 15.222656 11.382812 15.253906 11.414062 15.332031 C 11.445312 15.410156 11.78125 15.523438 12.15625 15.589844 L 12.84375 15.707031 L 12.058594 15.339844 C 11.144531 14.910156 11.191406 14.917969 10.6875 15.152344 M 12.941406 15.03125 C 12.941406 15.082031 13.207031 15.257812 13.53125 15.421875 C 13.851562 15.585938 14.117188 15.675781 14.117188 15.625 C 14.117188 15.570312 13.851562 15.394531 13.53125 15.230469 C 13.207031 15.066406 12.941406 14.976562 12.941406 15.03125 M 20.734375 15.085938 C 21.839844 15.121094 23.648438 15.121094 24.753906 15.085938 C 25.859375 15.054688 24.957031 15.023438 22.746094 15.023438 C 20.535156 15.023438 19.628906 15.054688 20.734375 15.085938 M 2.234375 17.53125 C 2.234375 18.898438 2.265625 19.433594 2.300781 18.71875 C 2.339844 18.003906 2.339844 16.882812 2.300781 16.230469 C 2.265625 15.574219 2.234375 16.160156 2.234375 17.53125 M 7.253906 15.554688 C 7.511719 15.648438 7.933594 15.648438 8.21875 15.554688 C 8.640625 15.417969 8.5625 15.390625 7.761719 15.390625 C 7 15.390625 6.894531 15.425781 7.253906 15.554688 M 8.726562 15.710938 C 8.660156 15.816406 8.804688 15.902344 9.058594 15.90625 C 9.304688 15.90625 9.730469 15.949219 10 16.003906 C 10.433594 16.085938 10.421875 16.066406 9.902344 15.816406 C 9.199219 15.480469 8.886719 15.453125 8.726562 15.710938 M 26.863281 16.085938 C 26.863281 17.03125 26.433594 17.121094 22.492188 16.996094 C 20.152344 16.921875 18.882812 16.804688 18.660156 16.640625 C 18.355469 16.417969 18.355469 16.425781 18.660156 16.753906 C 19.105469 17.226562 20.535156 17.421875 23.789062 17.445312 C 26.296875 17.464844 26.539062 17.4375 26.945312 17.066406 C 27.195312 16.835938 27.363281 16.476562 27.335938 16.234375 C 27.308594 16 27.28125 15.742188 27.269531 15.664062 C 27.261719 15.582031 27.167969 15.519531 27.058594 15.519531 C 26.949219 15.519531 26.863281 15.773438 26.863281 16.085938 M 3.53125 15.882812 C 3.53125 16.148438 4.277344 16.523438 4.570312 16.410156 C 4.703125 16.355469 4.660156 16.308594 4.476562 16.300781 C 4.292969 16.292969 4.007812 16.148438 3.835938 15.984375 C 3.667969 15.816406 3.53125 15.773438 3.53125 15.882812 M 14.753906 16.132812 C 15.367188 16.648438 15.457031 17.171875 14.949219 17.300781 C 14.691406 17.367188 14.71875 17.394531 15.050781 17.414062 C 15.761719 17.449219 15.636719 16.597656 14.851562 16.089844 L 14.214844 15.679688 L 14.753906 16.132812 M 18.25 16.011719 C 18.261719 16.238281 18.308594 16.28125 18.371094 16.128906 C 18.425781 15.992188 18.417969 15.824219 18.355469 15.761719 C 18.289062 15.699219 18.242188 15.8125 18.25 16.011719 M 7.304688 16.617188 C 7.707031 16.65625 8.371094 16.65625 8.773438 16.617188 C 9.179688 16.574219 8.847656 16.539062 8.039062 16.539062 C 7.230469 16.539062 6.898438 16.574219 7.304688 16.617188 M 9.765625 16.800781 C 9.910156 16.855469 10.078125 16.847656 10.144531 16.785156 C 10.207031 16.71875 10.09375 16.675781 9.886719 16.683594 C 9.65625 16.691406 9.609375 16.738281 9.765625 16.800781 M 10.539062 16.988281 C 10.675781 17.039062 10.894531 17.039062 11.03125 16.988281 C 11.164062 16.933594 11.054688 16.890625 10.785156 16.890625 C 10.515625 16.890625 10.40625 16.933594 10.539062 16.988281 M 11.519531 17.179688 C 11.65625 17.230469 11.875 17.230469 12.011719 17.179688 C 12.144531 17.125 12.035156 17.082031 11.765625 17.082031 C 11.496094 17.082031 11.386719 17.125 11.519531 17.179688 M 3.445312 17.542969 C 2.996094 17.980469 3.066406 18.128906 3.53125 17.722656 C 3.746094 17.53125 3.921875 17.34375 3.921875 17.308594 C 3.921875 17.167969 3.738281 17.257812 3.445312 17.542969 M 5.933594 17.375 C 6.125 17.425781 6.390625 17.421875 6.523438 17.367188 C 6.65625 17.316406 6.5 17.277344 6.175781 17.28125 C 5.851562 17.285156 5.746094 17.328125 5.933594 17.375 M 12.792969 17.375 C 12.984375 17.421875 13.292969 17.421875 13.480469 17.375 C 13.667969 17.328125 13.515625 17.289062 13.136719 17.289062 C 12.761719 17.289062 12.605469 17.328125 12.792969 17.375 M 7.207031 17.5625 C 7.339844 17.613281 7.5625 17.613281 7.695312 17.5625 C 7.832031 17.507812 7.71875 17.464844 7.449219 17.464844 C 7.179688 17.464844 7.070312 17.507812 7.207031 17.5625 M 8.972656 17.761719 C 9.21875 17.808594 9.570312 17.804688 9.757812 17.757812 C 9.945312 17.710938 9.746094 17.671875 9.3125 17.675781 C 8.882812 17.675781 8.730469 17.714844 8.972656 17.761719 M 10.835938 17.957031 C 11.132812 18 11.574219 17.996094 11.816406 17.953125 C 12.058594 17.90625 11.8125 17.871094 11.273438 17.871094 C 10.734375 17.875 10.539062 17.910156 10.835938 17.957031 M 13.1875 18.148438 C 13.484375 18.191406 13.96875 18.191406 14.265625 18.148438 C 14.5625 18.101562 14.320312 18.066406 13.726562 18.066406 C 13.132812 18.066406 12.890625 18.101562 13.1875 18.148438 M 14.65625 18.503906 C 13.898438 18.90625 13.984375 19.042969 14.753906 18.660156 C 15.492188 18.292969 15.625 18.199219 15.375 18.207031 C 15.277344 18.210938 14.953125 18.34375 14.65625 18.503906 M 6.652344 18.601562 C 6.917969 18.707031 7.257812 18.742188 7.414062 18.683594 C 7.570312 18.625 7.816406 18.671875 7.960938 18.789062 C 8.105469 18.90625 8.335938 18.960938 8.472656 18.90625 C 8.628906 18.84375 8.585938 18.800781 8.371094 18.789062 C 8.175781 18.78125 8.070312 18.691406 8.136719 18.585938 C 8.210938 18.464844 7.863281 18.398438 7.21875 18.40625 C 6.339844 18.414062 6.25 18.445312 6.652344 18.601562 M 24.367188 18.523438 C 24.558594 18.574219 24.820312 18.570312 24.953125 18.519531 C 25.085938 18.464844 24.929688 18.425781 24.609375 18.429688 C 24.285156 18.433594 24.175781 18.476562 24.367188 18.523438 M 25.835938 18.527344 C 26.078125 18.574219 26.433594 18.570312 26.621094 18.523438 C 26.808594 18.476562 26.609375 18.4375 26.175781 18.441406 C 25.746094 18.441406 25.589844 18.480469 25.835938 18.527344 M 29.851562 18.53125 C 30.148438 18.574219 30.636719 18.574219 30.929688 18.53125 C 31.226562 18.484375 30.984375 18.449219 30.390625 18.449219 C 29.800781 18.449219 29.554688 18.484375 29.851562 18.53125 M 8.96875 18.710938 C 9.105469 18.765625 9.324219 18.765625 9.460938 18.710938 C 9.59375 18.65625 9.484375 18.613281 9.214844 18.613281 C 8.945312 18.613281 8.835938 18.65625 8.96875 18.710938 M 11.175781 18.972656 C 11.175781 19.078125 10.976562 19.132812 10.734375 19.09375 C 10.492188 19.054688 10.40625 19.058594 10.542969 19.105469 C 10.675781 19.152344 10.734375 19.273438 10.667969 19.378906 C 10.601562 19.488281 10.820312 19.433594 11.15625 19.265625 C 11.824219 18.925781 11.921875 18.777344 11.46875 18.777344 C 11.308594 18.777344 11.175781 18.863281 11.175781 18.972656 M 13.332031 19.160156 C 13.171875 19.261719 13.128906 19.34375 13.234375 19.34375 C 13.34375 19.34375 13.5625 19.261719 13.726562 19.160156 C 13.886719 19.058594 13.929688 18.972656 13.824219 18.972656 C 13.714844 18.972656 13.496094 19.058594 13.332031 19.160156 M 14.804688 19.15625 C 14.738281 19.265625 14.816406 19.296875 14.988281 19.230469 C 15.234375 19.140625 15.292969 19.269531 15.292969 19.863281 C 15.292969 20.503906 15.15625 20.742188 14.316406 21.550781 C 13.78125 22.066406 13.378906 22.527344 13.429688 22.570312 C 13.476562 22.617188 13.742188 22.386719 14.023438 22.0625 C 14.308594 21.734375 14.640625 21.484375 14.769531 21.511719 C 14.894531 21.535156 14.972656 21.425781 14.9375 21.265625 C 14.890625 21.050781 14.929688 21.03125 15.105469 21.199219 C 15.257812 21.347656 15.3125 22.019531 15.265625 23.242188 C 15.226562 24.242188 15.261719 24.960938 15.339844 24.839844 C 15.417969 24.71875 15.484375 23.347656 15.488281 21.792969 C 15.488281 19.460938 15.441406 18.96875 15.207031 18.96875 C 15.050781 18.96875 14.871094 19.050781 14.804688 19.15625 M 9.570312 19.289062 C 9.710938 19.34375 9.882812 19.339844 9.945312 19.273438 C 10.011719 19.210938 9.894531 19.164062 9.691406 19.175781 C 9.460938 19.183594 9.414062 19.230469 9.570312 19.289062 M 18.25 19.460938 C 18.261719 19.683594 18.308594 19.730469 18.371094 19.578125 C 18.425781 19.441406 18.417969 19.273438 18.355469 19.210938 C 18.289062 19.148438 18.242188 19.261719 18.25 19.460938 M 33.921875 19.453125 C 33.921875 19.625 33.765625 19.957031 33.578125 20.183594 C 33.238281 20.59375 33.199219 20.59375 26.289062 20.546875 C 22.46875 20.519531 19.382812 20.535156 19.429688 20.582031 C 19.675781 20.824219 32.152344 21.25 32.941406 21.042969 C 33.460938 20.910156 33.734375 20.671875 33.605469 20.46875 C 33.53125 20.34375 33.640625 20.351562 33.894531 20.484375 C 34.246094 20.667969 34.285156 20.652344 34.179688 20.378906 C 34.101562 20.179688 34.128906 20.101562 34.253906 20.175781 C 34.375 20.25 34.417969 20.117188 34.359375 19.820312 C 34.25 19.265625 33.921875 18.988281 33.921875 19.453125 M 8.589844 19.480469 C 8.730469 19.535156 8.902344 19.53125 8.964844 19.464844 C 9.03125 19.402344 8.914062 19.355469 8.710938 19.367188 C 8.480469 19.375 8.433594 19.421875 8.589844 19.480469 M 7.058594 19.734375 C 6.816406 19.886719 6.832031 19.917969 7.15625 19.917969 C 7.371094 19.917969 7.679688 19.835938 7.84375 19.734375 C 8.085938 19.578125 8.070312 19.546875 7.746094 19.546875 C 7.53125 19.546875 7.21875 19.632812 7.058594 19.734375 M 11.960938 19.734375 C 11.800781 19.835938 11.753906 19.917969 11.863281 19.917969 C 11.96875 19.917969 12.191406 19.835938 12.351562 19.734375 C 12.515625 19.632812 12.558594 19.546875 12.449219 19.546875 C 12.34375 19.546875 12.121094 19.632812 11.960938 19.734375 M 9.375 19.863281 C 9.515625 19.917969 9.6875 19.914062 9.75 19.847656 C 9.816406 19.785156 9.699219 19.742188 9.492188 19.75 C 9.265625 19.757812 9.21875 19.804688 9.375 19.863281 M 10.882812 20.117188 C 10.625 20.226562 10.589844 20.285156 10.785156 20.292969 C 10.945312 20.296875 11.210938 20.21875 11.371094 20.117188 C 11.730469 19.890625 11.421875 19.890625 10.882812 20.117188 M 2.367188 20.804688 C 2.378906 21.027344 2.425781 21.070312 2.488281 20.917969 C 2.542969 20.78125 2.535156 20.617188 2.472656 20.550781 C 2.40625 20.488281 2.359375 20.601562 2.367188 20.804688 M 11.570312 20.789062 C 11.300781 20.9375 11.167969 21.0625 11.273438 21.0625 C 11.382812 21.0625 11.691406 20.9375 11.960938 20.789062 C 12.230469 20.636719 12.363281 20.511719 12.253906 20.511719 C 12.148438 20.511719 11.839844 20.636719 11.570312 20.789062 M 8.039062 21.265625 C 7.863281 21.378906 7.839844 21.453125 7.980469 21.453125 C 8.105469 21.457031 8.265625 21.371094 8.332031 21.265625 C 8.484375 21.027344 8.414062 21.027344 8.039062 21.265625 M 10.492188 21.265625 C 10.421875 21.371094 10.5 21.40625 10.675781 21.339844 C 11.015625 21.210938 11.078125 21.074219 10.796875 21.074219 C 10.695312 21.074219 10.558594 21.160156 10.492188 21.265625 M 3.53125 21.367188 C 3.527344 21.601562 4.105469 22.453125 4.402344 22.652344 C 4.515625 22.730469 4.738281 22.789062 4.902344 22.785156 C 5.066406 22.777344 5.003906 22.699219 4.757812 22.601562 C 4.515625 22.507812 4.140625 22.144531 3.921875 21.800781 C 3.707031 21.453125 3.53125 21.257812 3.53125 21.367188 M 12.648438 21.566406 C 12.324219 21.71875 11.484375 22.101562 10.785156 22.417969 C 10.023438 22.757812 9.746094 22.945312 10.097656 22.882812 L 10.6875 22.777344 L 10.195312 23.070312 C 9.589844 23.429688 9.136719 23.464844 9.339844 23.132812 C 9.433594 22.980469 9.363281 22.992188 9.144531 23.167969 C 8.957031 23.316406 8.714844 23.617188 8.605469 23.835938 C 8.441406 24.175781 8.449219 24.191406 8.664062 23.949219 C 8.804688 23.789062 9.097656 23.632812 9.308594 23.59375 C 10.042969 23.46875 11.195312 22.789062 11.054688 22.566406 C 10.964844 22.429688 11.027344 22.390625 11.222656 22.464844 C 11.503906 22.570312 13.332031 21.617188 13.332031 21.367188 C 13.332031 21.242188 13.351562 21.234375 12.648438 21.566406 M 6.863281 21.839844 C 6.484375 22.042969 6.246094 22.210938 6.332031 22.214844 C 6.539062 22.226562 7.648438 21.664062 7.648438 21.546875 C 7.648438 21.421875 7.636719 21.425781 6.863281 21.839844 M 9.707031 21.648438 C 9.636719 21.757812 9.71875 21.789062 9.890625 21.722656 C 10.230469 21.59375 10.292969 21.457031 10.011719 21.457031 C 9.910156 21.457031 9.773438 21.542969 9.707031 21.648438 M 24.804688 21.847656 C 22.367188 21.933594 22.828125 21.960938 27.5 21.992188 C 30.714844 22.015625 33.136719 21.960938 33.136719 21.863281 C 33.136719 21.679688 29.597656 21.671875 24.804688 21.847656 M 2.75 21.9375 C 2.75 22.042969 2.835938 22.257812 2.941406 22.414062 C 3.046875 22.574219 3.132812 22.617188 3.132812 22.511719 C 3.132812 22.40625 3.046875 22.191406 2.941406 22.03125 C 2.835938 21.875 2.75 21.832031 2.75 21.9375 M 7.988281 22.429688 C 7.371094 22.742188 6.863281 23.039062 6.863281 23.09375 C 6.863281 23.179688 9.195312 22.09375 9.394531 21.914062 C 9.652344 21.683594 8.96875 21.933594 7.988281 22.429688 M 14.386719 22.082031 C 14.308594 22.210938 14.117188 22.535156 13.964844 22.800781 C 13.695312 23.257812 13.695312 23.261719 14.011719 22.894531 C 14.410156 22.429688 14.753906 21.839844 14.625 21.839844 C 14.574219 21.839844 14.46875 21.949219 14.386719 22.082031 M 34.050781 22.351562 C 33.980469 22.421875 33.921875 22.675781 33.921875 22.914062 C 33.921875 23.941406 33.863281 23.949219 26.523438 23.949219 C 22.792969 23.949219 19.773438 23.980469 19.820312 24.019531 C 20.007812 24.1875 22.972656 24.34375 27.910156 24.441406 C 31.816406 24.523438 33.140625 24.492188 33.039062 24.332031 C 32.960938 24.207031 33.015625 24.128906 33.167969 24.148438 C 33.691406 24.21875 33.921875 24.136719 33.921875 23.867188 C 33.921875 23.71875 34.011719 23.566406 34.121094 23.53125 C 34.226562 23.496094 34.355469 23.273438 34.402344 23.03125 C 34.460938 22.746094 34.414062 22.640625 34.269531 22.730469 C 34.128906 22.816406 34.09375 22.75 34.175781 22.542969 C 34.308594 22.207031 34.265625 22.140625 34.050781 22.351562 M 18.25 22.910156 C 18.261719 23.132812 18.308594 23.179688 18.371094 23.027344 C 18.425781 22.886719 18.417969 22.722656 18.355469 22.660156 C 18.289062 22.597656 18.242188 22.707031 18.25 22.910156 M 3.136719 22.980469 C 3.136719 23.078125 3.222656 23.210938 3.332031 23.277344 C 3.441406 23.34375 3.476562 23.265625 3.410156 23.097656 C 3.277344 22.765625 3.136719 22.703125 3.136719 22.980469 M 12.722656 23.324219 C 12.0625 24.039062 11.695312 24.523438 11.816406 24.523438 C 11.871094 24.523438 12.238281 24.136719 12.636719 23.660156 C 13.433594 22.710938 13.488281 22.5 12.722656 23.324219 M 5.550781 23.835938 C 5.246094 24.089844 5.042969 24.328125 5.097656 24.367188 C 5.152344 24.40625 5.449219 24.195312 5.761719 23.90625 C 6.453125 23.25 6.304688 23.203125 5.550781 23.835938 M 3.53125 23.6875 C 3.53125 23.792969 3.667969 24.042969 3.835938 24.246094 C 4.121094 24.597656 4.125 24.589844 3.90625 24.140625 C 3.621094 23.554688 3.53125 23.445312 3.53125 23.6875 M 12.796875 24.570312 C 12.6875 24.703125 12.496094 25.027344 12.367188 25.289062 C 12.144531 25.75 12.148438 25.753906 12.453125 25.386719 C 12.835938 24.929688 13.183594 24.332031 13.070312 24.332031 C 13.027344 24.332031 12.902344 24.441406 12.796875 24.570312 M 4.3125 25.097656 C 4.429688 25.308594 4.566406 25.480469 4.621094 25.480469 C 4.675781 25.480469 4.625 25.308594 4.511719 25.097656 C 4.394531 24.886719 4.257812 24.714844 4.203125 24.714844 C 4.148438 24.714844 4.199219 24.886719 4.3125 25.097656 M 5.414062 25.179688 C 5.46875 25.316406 5.714844 25.519531 5.960938 25.628906 C 6.207031 25.738281 6.921875 26.289062 7.546875 26.851562 C 8.167969 27.414062 8.867188 27.996094 9.09375 28.144531 C 9.324219 28.289062 8.863281 27.824219 8.078125 27.113281 C 6.519531 25.699219 5.257812 24.785156 5.414062 25.179688 M 11.191406 25.976562 C 11.203125 26.199219 11.246094 26.246094 11.308594 26.09375 C 11.367188 25.953125 11.359375 25.789062 11.292969 25.726562 C 11.230469 25.660156 11.183594 25.773438 11.191406 25.976562 M 14.707031 26.082031 C 14.707031 26.171875 14.925781 26.246094 15.195312 26.246094 C 15.464844 26.246094 15.6875 26.214844 15.6875 26.175781 C 15.6875 26.132812 15.464844 26.058594 15.195312 26.007812 C 14.925781 25.957031 14.707031 25.992188 14.707031 26.082031 M 20.195312 26.054688 C 16.445312 26.152344 16.804688 26.167969 23.441406 26.207031 C 28.933594 26.238281 30.964844 26.308594 31.136719 26.476562 C 31.296875 26.636719 31.371094 27.578125 31.371094 29.46875 C 31.371094 31.90625 31.40625 32.207031 31.667969 31.996094 C 32.054688 31.679688 32.097656 27.25 31.714844 26.792969 C 30.878906 25.78125 30.929688 25.78125 20.195312 26.054688 M 5.292969 26.386719 C 5.292969 26.738281 8.007812 28.988281 9.089844 29.53125 C 9.6875 29.832031 9.324219 29.527344 7.699219 28.375 C 6.921875 27.820312 6.0625 27.109375 5.789062 26.792969 C 5.515625 26.476562 5.292969 26.292969 5.292969 26.386719 M 11.347656 27.15625 C 11.105469 27.460938 11.109375 27.46875 11.421875 27.230469 C 11.609375 27.085938 11.765625 26.933594 11.765625 26.894531 C 11.765625 26.738281 11.605469 26.839844 11.347656 27.15625 M 18.089844 28.402344 C 18.121094 28.835938 18.242188 29.03125 18.484375 29.050781 C 18.707031 29.070312 18.726562 29.050781 18.542969 28.996094 C 18.386719 28.945312 18.210938 28.652344 18.148438 28.34375 C 18.042969 27.804688 18.042969 27.808594 18.089844 28.402344 M 22.746094 28.054688 C 22.746094 28.207031 22.589844 28.367188 22.402344 28.410156 C 22.210938 28.457031 22.25 28.476562 22.492188 28.453125 C 22.875 28.417969 22.929688 28.515625 22.996094 29.390625 C 23.058594 30.195312 23.074219 30.140625 23.078125 29.074219 C 23.078125 28.363281 23.003906 27.78125 22.914062 27.78125 C 22.820312 27.78125 22.746094 27.902344 22.746094 28.054688 M 26.078125 29.488281 C 26.078125 30.371094 25.996094 30.847656 25.832031 30.910156 C 25.6875 30.96875 25.726562 31.011719 25.929688 31.023438 C 26.230469 31.035156 26.273438 30.847656 26.273438 29.601562 C 26.273438 28.808594 26.230469 28.164062 26.175781 28.164062 C 26.121094 28.164062 26.078125 28.761719 26.078125 29.488281 M 9.691406 28.527344 C 9.832031 28.746094 10.589844 29.191406 10.589844 29.054688 C 10.589844 29.011719 10.355469 28.824219 10.074219 28.644531 C 9.789062 28.464844 9.621094 28.410156 9.691406 28.527344 M 20.445312 28.488281 C 20.636719 28.535156 20.902344 28.535156 21.03125 28.480469 C 21.164062 28.429688 21.011719 28.386719 20.6875 28.390625 C 20.363281 28.394531 20.253906 28.4375 20.445312 28.488281 M 12.058594 29.3125 L 11.273438 29.449219 L 12 29.476562 C 12.394531 29.492188 12.777344 29.417969 12.84375 29.3125 C 12.910156 29.207031 12.9375 29.132812 12.902344 29.148438 C 12.871094 29.164062 12.488281 29.238281 12.058594 29.3125 M 18.117188 29.777344 C 18.058594 29.925781 18.042969 30.292969 18.082031 30.589844 C 18.136719 31.035156 18.167969 30.984375 18.246094 30.320312 C 18.347656 29.480469 18.304688 29.300781 18.117188 29.777344 M 13.503906 30.03125 C 13.261719 30.335938 13.265625 30.34375 13.578125 30.105469 C 13.765625 29.960938 13.921875 29.808594 13.921875 29.769531 C 13.921875 29.609375 13.761719 29.710938 13.503906 30.03125 M 17.292969 30.558594 C 17.296875 30.875 17.339844 30.980469 17.390625 30.792969 C 17.441406 30.609375 17.4375 30.347656 17.382812 30.21875 C 17.328125 30.089844 17.289062 30.242188 17.292969 30.558594 M 28.289062 30.402344 C 28.480469 30.453125 28.742188 30.449219 28.875 30.398438 C 29.007812 30.34375 28.851562 30.304688 28.53125 30.308594 C 28.207031 30.3125 28.097656 30.355469 28.289062 30.402344 M 11.371094 30.75 C 11.640625 30.902344 11.949219 31.023438 12.058594 31.023438 C 12.167969 31.023438 12.035156 30.902344 11.765625 30.75 C 11.496094 30.597656 11.1875 30.476562 11.078125 30.476562 C 10.96875 30.476562 11.101562 30.597656 11.371094 30.75 M 27.109375 30.984375 C 27.410156 31.027344 27.851562 31.027344 28.089844 30.980469 C 28.332031 30.933594 28.089844 30.898438 27.550781 30.902344 C 27.011719 30.902344 26.8125 30.9375 27.109375 30.984375 M 15.621094 32.328125 C 15.570312 32.410156 16.691406 32.484375 18.109375 32.5 C 21.542969 32.53125 29.226562 32.765625 29.65625 32.851562 C 29.84375 32.886719 30 32.839844 30 32.742188 C 30 32.648438 30.214844 32.570312 30.480469 32.570312 C 30.742188 32.570312 31.003906 32.5 31.058594 32.410156 C 31.113281 32.324219 27.683594 32.238281 23.433594 32.21875 C 19.1875 32.199219 15.667969 32.25 15.621094 32.328125 M 15.324219 33.527344 C 15.324219 33.792969 15.371094 33.898438 15.425781 33.765625 C 15.476562 33.636719 15.476562 33.421875 15.425781 33.289062 C 15.371094 33.15625 15.324219 33.265625 15.324219 33.527344 M 15.308594 34.597656 C 15.320312 34.820312 15.367188 34.867188 15.429688 34.714844 C 15.484375 34.574219 15.476562 34.410156 15.414062 34.347656 C 15.347656 34.28125 15.300781 34.394531 15.308594 34.597656 M 15.488281 35.183594 C 15.488281 35.460938 15.945312 36.039062 16.320312 36.234375 C 16.625 36.394531 18.707031 36.445312 23.710938 36.417969 C 27.542969 36.394531 30.71875 36.339844 30.765625 36.292969 C 30.8125 36.246094 27.652344 36.210938 23.742188 36.210938 L 16.636719 36.210938 L 16.0625 35.648438 C 15.746094 35.34375 15.488281 35.132812 15.488281 35.183594 "/>
</g>
</svg>
